# xmcd
#
# Track frame offsets:
#	150
#	22291
#	40550
#	57619
#	76400
#	97519
#	116480
#	132317
#	150797
#	163901
#
# Disc length: 2366 seconds
# Revision: 0
# Processed by: cddbd v1.5.2PL0 Copyright (c) Steve Scherf et al.
# Submitted via: dBpowerAMP V12.0
#
DISCID=73093c0a
DTITLE=Children of Bodom - Relentless, Reckless Forever
DYEAR=2011
DGENRE=Metal
TTITLE0=Not My Funeral
TTITLE1=Shovel Knockout
TTITLE2=Roundtrip to Hell and Back
TTITLE3=Pussyfoot Miss Suicide
TTITLE4=Relentless Reckless Forever
TTITLE5=Ugly
TTITLE6=Cry of the Nihilist
TTITLE7=Was It Worth It?
TTITLE8=Northpole Throwdown
TTITLE9=Party All the Time (Eddie Murphy cover)
EXTD=
EXTT0=
EXTT1=
EXTT2=
EXTT3=
EXTT4=
EXTT5=
EXTT6=
EXTT7=
EXTT8=
EXTT9=
PLAYORDER=
